<?xml version="1.0" encoding="utf-8"?>
<svg xmlns="http://www.w3.org/2000/svg" width="97.207" height="56.24" viewBox="0 0 97.207 56.24">
  <g id="Groupe_203" data-name="Groupe 203" transform="translate(-100.294 -69.404)">
    <path id="Tracé_238" data-name="Tracé 238" d="M107.68,285.943c-.265-.3-.524-.6-.8-.892-.471-.5-.954-.987-1.426-1.485q-1.386-1.461-2.765-2.929c-.6-.637-1.188-1.281-1.782-1.923l-.067.029v6.979h-.549v-8.434l2.1,2.2q1.184,1.239,2.368,2.478.973,1.022,1.94,2.05c.148.157.283.326.483.557v-7.149h.594v.313q0,3.98,0,7.959c0,.082.007.165.01.247Z" transform="translate(0 -160.299)" fill="#f4f4f4" fill-rule="evenodd"/>
    <path id="Tracé_239" data-name="Tracé 239" d="M407.031,297.121l-2.3-5.326h.549l1.8,4.091c.174-.387.319-.7.455-1.017q.567-1.317,1.128-2.636c.007-.017.021-.031.029-.047.2-.422.2-.422.706-.387-.231.544-.458,1.08-.688,1.615q-.679,1.579-1.36,3.157c-.077.18-.138.366-.206.55Z" transform="translate(-234.749 -171.477)" fill="#f4f4f4" fill-rule="evenodd"/>
    <path id="Tracé_240" data-name="Tracé 240" d="M260.657,149.638c2.021,0,4.042.012,6.063-.01a4.92,4.92,0,0,0,1.246-.213,1.814,1.814,0,0,0,1.28-1.763c.041-3.487.039-6.974.071-10.461a3.529,3.529,0,0,1,1.373-2.869,6.033,6.033,0,0,1,2.886-1.273,10.369,10.369,0,0,1,1.621-.158,7.207,7.207,0,0,1,3.031.635,4.286,4.286,0,0,1,2.151,1.829,3.213,3.213,0,0,1,.416,1.354c.052,3.542.083,7.085.054,10.627a15.032,15.032,0,0,1-.394,2.76,17.754,17.754,0,0,1-.654,2.507,10.07,10.07,0,0,1-1.2,2.509,25.34,25.34,0,0,1-1.546,2.122,12.752,12.752,0,0,1-1.676,1.477,10.692,10.692,0,0,1-3.024,1.61,16.568,16.568,0,0,1-3.261.753,6.809,6.809,0,0,1-.981.06q-6.567.032-13.135.058a15.853,15.853,0,0,1-3.16-.348,26.7,26.7,0,0,1-2.616-.672,12.251,12.251,0,0,1-3.231-1.571,11.107,11.107,0,0,1-1.629-1.257,11.963,11.963,0,0,1-2.406-3.207,13.133,13.133,0,0,1-1.1-3.1,15.312,15.312,0,0,1-.3-2.174c-.252-3.867-.066-7.739-.11-11.609a3.682,3.682,0,0,1,.426-1.8,3.747,3.747,0,0,1,1.083-1.239,6.591,6.591,0,0,1,2.949-1.215,8.241,8.241,0,0,1,3.292.131,6.66,6.66,0,0,1,2.1.917,3.818,3.818,0,0,1,1.63,2.253,5.159,5.159,0,0,1,.121,1.272c.009,3.27,0,6.54.007,9.811a2.043,2.043,0,0,0,.9,1.843,2.978,2.978,0,0,0,.9.349,3.453,3.453,0,0,0,.814.065Q257.653,149.643,260.657,149.638Z" transform="translate(-108.044 -48.953)" fill="#f4f4f4" fill-rule="evenodd"/>
    <path id="Tracé_241" data-name="Tracé 241" d="M267.227,282.794a2.822,2.822,0,0,1-1.313.782,2.385,2.385,0,0,1-3.009-1.806,2.725,2.725,0,0,1,.734-2.827,2.391,2.391,0,0,1,1.978-.554,2.5,2.5,0,0,1,1.6.888v-4.755h.521v9.041h-.511Zm-1.946.368a1.829,1.829,0,0,0,1.6-.86,2.613,2.613,0,0,0,.352-1.648,1.934,1.934,0,0,0-2.452-1.72,2.188,2.188,0,0,0-1.35,2.744A2.018,2.018,0,0,0,265.281,283.162Z" transform="translate(-125.304 -158.166)" fill="#f4f4f4" fill-rule="evenodd"/>
    <path id="Tracé_242" data-name="Tracé 242" d="M346.939,277.867h.573c0,.1.012.188.012.276q0,2.4,0,4.794a4.634,4.634,0,0,1-.225,1.744,2.133,2.133,0,0,1-.962,1.1,3.164,3.164,0,0,1-3.275,0,2.116,2.116,0,0,1-1.135-1.885c-.035-1.971-.042-3.943-.059-5.914a.874.874,0,0,1,.016-.117h.569v.313c0,1.8-.011,3.6.006,5.4a1.954,1.954,0,0,0,.725,1.631,2.377,2.377,0,0,0,1.494.491,2.344,2.344,0,0,0,1.719-.671,2.079,2.079,0,0,0,.535-1.495c.016-1.772.006-3.545.006-5.318Z" transform="translate(-186.277 -160.745)" fill="#f4f4f4" fill-rule="evenodd"/>
    <path id="Tracé_243" data-name="Tracé 243" d="M180.629,296.472h-.515v-5.08h.511v.582a1.479,1.479,0,0,1,1.413-.7,1.406,1.406,0,0,1,1.244.774,4.03,4.03,0,0,1,.861-.64c.977-.378,2.178-.082,2.216,1.367.03,1.126.039,2.253.057,3.379,0,.1,0,.2,0,.313h-.53v-.306c0-.974,0-1.947,0-2.92a3.211,3.211,0,0,0-.074-.7.97.97,0,0,0-.939-.793,1.11,1.11,0,0,0-1.086.619,4.153,4.153,0,0,0-.275,1.255c-.042.843-.012,1.689-.012,2.534v.313h-.531v-.3c0-1.083,0-2.167,0-3.251a1.095,1.095,0,0,0-2.156-.333,3.477,3.477,0,0,0-.17,1.008C180.615,294.54,180.629,295.494,180.629,296.472Z" transform="translate(-61.549 -171.07)" fill="#f4f4f4" fill-rule="evenodd"/>
    <path id="Tracé_244" data-name="Tracé 244" d="M217.1,292.243v-.823h.512v5.065H217.1v-.825a2.424,2.424,0,0,1-1.425.859,2.378,2.378,0,0,1-2.5-.923,2.906,2.906,0,0,1-.492-2.024,2.787,2.787,0,0,1,.508-1.378,2.147,2.147,0,0,1,1.368-.847,2.534,2.534,0,0,1,1.544.135,1.657,1.657,0,0,1,.855.633C216.977,292.151,217.02,292.172,217.1,292.243Zm.009,1.539a1.945,1.945,0,0,0-1.2-1.838,1.87,1.87,0,0,0-2.013.333,2.326,2.326,0,0,0-.477,2.664,1.9,1.9,0,0,0,2.564.952A2.179,2.179,0,0,0,217.112,293.782Z" transform="translate(-86.648 -171.092)" fill="#f4f4f4" fill-rule="evenodd"/>
    <path id="Tracé_245" data-name="Tracé 245" d="M431.651,293.945H427.26a1.909,1.909,0,0,0,1.44,2.045,1.97,1.97,0,0,0,2.321-1.08l.481.268a5.54,5.54,0,0,1-.647.775,2.517,2.517,0,0,1-2.666.409,2.263,2.263,0,0,1-1.375-1.685,2.806,2.806,0,0,1,.595-2.66,2.415,2.415,0,0,1,4.133,1.216C431.59,293.452,431.61,293.677,431.651,293.945Zm-.585-.486A1.927,1.927,0,0,0,428.8,291.8a1.832,1.832,0,0,0-1.492,1.658Z" transform="translate(-251.698 -171.068)" fill="#f4f4f4" fill-rule="evenodd"/>
    <path id="Tracé_246" data-name="Tracé 246" d="M508.43,293.967h-4.349a1.95,1.95,0,0,0,1.132,1.954,2.027,2.027,0,0,0,2.605-.988l.537.3a8.621,8.621,0,0,1-1,.956,2.508,2.508,0,0,1-2.982-.206,2.911,2.911,0,0,1,.005-4.1,2.422,2.422,0,0,1,3.532.365,2.581,2.581,0,0,1,.486,1.465A1.979,1.979,0,0,0,508.43,293.967Zm-.594-.489a1.847,1.847,0,0,0-1.8-1.7,1.919,1.919,0,0,0-1.961,1.7Z" transform="translate(-310.929 -171.089)" fill="#f4f4f4" fill-rule="evenodd"/>
    <path id="Tracé_247" data-name="Tracé 247" d="M305.586,293.953h-4.362a1.964,1.964,0,0,0,1.172,1.963,2.023,2.023,0,0,0,2.569-1l.456.243a2.5,2.5,0,0,1-4.558-.161,2.8,2.8,0,0,1,.7-3.167,2.414,2.414,0,0,1,3.984,1.849A2.5,2.5,0,0,0,305.586,293.953Zm-.586-.491a1.874,1.874,0,0,0-1.828-1.7,1.894,1.894,0,0,0-1.93,1.7Z" transform="translate(-154.494 -171.07)" fill="#f4f4f4" fill-rule="evenodd"/>
    <path id="Tracé_248" data-name="Tracé 248" d="M140.851,291.3a2.577,2.577,0,0,1,2.649,2.67,2.651,2.651,0,0,1-5.3-.028A2.587,2.587,0,0,1,140.851,291.3Zm-.017,4.794a2.109,2.109,0,0,0,2.135-2.141,2.12,2.12,0,1,0-2.135,2.141Z" transform="translate(-29.228 -171.106)" fill="#f4f4f4" fill-rule="evenodd"/>
    <path id="Tracé_249" data-name="Tracé 249" d="M245.2,296.5h-.5v-.288c0-.991.017-1.983-.009-2.974a2.925,2.925,0,0,0-.2-.967c-.162-.415-.584-.479-.957-.485a1.235,1.235,0,0,0-1.2.688,2.182,2.182,0,0,0-.227.771c-.048.628-.053,1.259-.065,1.889-.009.448,0,.9,0,1.362h-.514v-5.074h.516v.739a1.759,1.759,0,0,1,1.676-.863,1.345,1.345,0,0,1,1.445,1.324c.089,1.268.053,2.544.068,3.817C245.225,296.451,245.21,296.467,245.2,296.5Z" transform="translate(-108.899 -171.097)" fill="#f4f4f4" fill-rule="evenodd"/>
    <path id="Tracé_250" data-name="Tracé 250" d="M374.256,296.479h-.509v-5.07h.5v.6a2.112,2.112,0,0,1,.94-.641,1.859,1.859,0,0,1,1.613.191,1.217,1.217,0,0,1,.529.974c.048.923.048,1.848.062,2.772.006.384,0,.768,0,1.17h-.529v-.3c0-1.066.01-2.131-.008-3.2a1.719,1.719,0,0,0-.17-.727,1,1,0,0,0-1.1-.464,1.544,1.544,0,0,0-1.332,1.709c0,.891,0,1.782,0,2.673Z" transform="translate(-210.858 -171.08)" fill="#f4f4f4" fill-rule="evenodd"/>
    <path id="Tracé_251" data-name="Tracé 251" d="M467.259,292.127l-.446.223a1.147,1.147,0,0,0-.809-.562.879.879,0,0,0-.846.5.623.623,0,0,0,.256.82,10.283,10.283,0,0,0,1.079.492,1.4,1.4,0,0,1,1.029,1.668,1.492,1.492,0,0,1-1.45,1.3,1.793,1.793,0,0,1-1.623-.664,3.419,3.419,0,0,1-.327-.658c.08-.032.138-.051.192-.078.239-.119.354-.069.48.2a1.145,1.145,0,0,0,1.866.4.941.941,0,0,0-.3-1.635,12.475,12.475,0,0,1-1.2-.546,1.066,1.066,0,0,1-.576-1.139,1.189,1.189,0,0,1,.835-1.068A1.454,1.454,0,0,1,467.259,292.127Z" transform="translate(-280.546 -171.094)" fill="#f4f4f4" fill-rule="evenodd"/>
    <path id="Tracé_252" data-name="Tracé 252" d="M494.467,290.791H494v-4.609h-.6v-.471h.586v-1.818h.47v1.8h.935v.471h-.919Z" transform="translate(-303.117 -165.391)" fill="#f4f4f4" fill-rule="evenodd"/>
    <path id="Tracé_253" data-name="Tracé 253" d="M167.07,296.5h-.45v-5.08h.447c.008.181.017.366.03.63a1.227,1.227,0,0,1,1.243-.752,2.039,2.039,0,0,1,.209.041c.183.031.251.1.111.271a1.6,1.6,0,0,0-.144.256c-.9-.245-1.328.282-1.371,1.191-.052,1.1-.045,2.2-.064,3.294C167.08,296.393,167.075,296.437,167.07,296.5Z" transform="translate(-51.144 -171.096)" fill="#f4f4f4" fill-rule="evenodd"/>
    <path id="Tracé_254" data-name="Tracé 254" d="M453.9,296.5h-.443v-5.08h.439l.032.624a1.23,1.23,0,0,1,1.249-.745,1.856,1.856,0,0,1,.209.044c.191.036.237.114.1.275a1.445,1.445,0,0,0-.143.252c-.978-.286-1.336.421-1.368,1.167-.047,1.087-.044,2.176-.063,3.264C453.905,296.361,453.9,296.423,453.9,296.5Z" transform="translate(-272.319 -171.098)" fill="#f4f4f4" fill-rule="evenodd"/>
    <path id="Tracé_255" data-name="Tracé 255" d="M293.1,296.933H292.6v-5.086h.493Z" transform="translate(-148.288 -171.525)" fill="#f4f4f4" fill-rule="evenodd"/>
    <path id="Tracé_256" data-name="Tracé 256" d="M397.828,291.84h.486v5.078h-.486Z" transform="translate(-229.427 -171.519)" fill="#f4f4f4" fill-rule="evenodd"/>
    <path id="Tracé_257" data-name="Tracé 257" d="M485.908,296.92h-.431v-5.079h.431Z" transform="translate(-297.013 -171.52)" fill="#f4f4f4" fill-rule="evenodd"/>
    <path id="Tracé_258" data-name="Tracé 258" d="M510.908,281.467c.352-.522.693-1.036,1.046-1.541a.243.243,0,0,1,.205-.056c.183.038.36.1.584.165-.13.17-.234.322-.354.461-.309.357-.622.71-.942,1.058a.243.243,0,0,1-.2.059A2.132,2.132,0,0,1,510.908,281.467Z" transform="translate(-316.622 -162.286)" fill="#f4f4f4" fill-rule="evenodd"/>
    <path id="Tracé_259" data-name="Tracé 259" d="M292.053,283.3a.434.434,0,0,1-.483-.434.544.544,0,0,1,.492-.484.509.509,0,0,1,.468.448A.451.451,0,0,1,292.053,283.3Z" transform="translate(-147.492 -164.229)" fill="#f4f4f4" fill-rule="evenodd"/>
    <path id="Tracé_260" data-name="Tracé 260" d="M397.453,283.307c-.291,0-.444-.147-.444-.423a.47.47,0,0,1,.436-.492.488.488,0,0,1,.481.484A.416.416,0,0,1,397.453,283.307Z" transform="translate(-228.795 -164.234)" fill="#f4f4f4" fill-rule="evenodd"/>
    <path id="Tracé_261" data-name="Tracé 261" d="M484.856,283.307a.413.413,0,0,1-.436-.441.488.488,0,0,1,.489-.476.478.478,0,0,1,.428.5C485.333,283.171,485.173,283.31,484.856,283.307Z" transform="translate(-296.197 -164.233)" fill="#f4f4f4" fill-rule="evenodd"/>
    <path id="Tracé_262" data-name="Tracé 262" d="M204,69.4c.981.252,1.983.442,2.939.767,4.826,1.642,7.485,5.215,8.473,10.034a41.328,41.328,0,0,1,.548,6.7c.087,2.283,0,4.572.025,6.858a3.9,3.9,0,0,1-2.3,3.789,7.708,7.708,0,0,1-7.36-.043,3.873,3.873,0,0,1-2.229-3.726c.017-3.173.01-6.346,0-9.52-.005-2.319-.676-2.984-2.982-2.984H189.347c-2.3,0-2.957.671-2.958,3.007q0,4.5,0,9.008c0,2.6-.975,3.982-3.461,4.757a7.656,7.656,0,0,1-6.413-.659,3.833,3.833,0,0,1-2.012-3.548c.027-3.276.008-6.551.008-9.827,0-8.135,4.129-13.018,12.159-14.388a5.837,5.837,0,0,0,.743-.228Z" transform="translate(-57.222 0)" fill="#f4f4f4" fill-rule="evenodd"/>
  </g>
</svg>
